<mxfile host="app.diagrams.net" modified="2024-01-15T18:19:35.388Z" agent="Mozilla/5.0 (Windows NT 10.0; Win64; x64) AppleWebKit/537.36 (KHTML, like Gecko) Chrome/120.0.0.0 Safari/537.36" etag="yvS8tl_HP7MmHN86EzMW" version="22.1.17" type="device">
  <diagram name="Page-1" id="822b0af5-4adb-64df-f703-e8dfc1f81529">
    <mxGraphModel dx="7616" dy="3286" grid="1" gridSize="10" guides="1" tooltips="1" connect="1" arrows="1" fold="1" page="1" pageScale="1" pageWidth="1100" pageHeight="850" background="none" math="0" shadow="0">
      <root>
        <mxCell id="0" />
        <mxCell id="1" parent="0" />
        <mxCell id="_vD9ttKoIvzyoLe7udzj-209" value="" style="rounded=1;whiteSpace=wrap;html=1;fillColor=#FFF4C3;" vertex="1" parent="1">
          <mxGeometry x="90" y="-176.75" width="1460" height="880" as="geometry" />
        </mxCell>
        <mxCell id="_vD9ttKoIvzyoLe7udzj-208" value="" style="rounded=1;whiteSpace=wrap;html=1;fillColor=#FFF4C3;" vertex="1" parent="1">
          <mxGeometry x="-795" width="845" height="1210" as="geometry" />
        </mxCell>
        <mxCell id="_vD9ttKoIvzyoLe7udzj-206" value="" style="rounded=1;whiteSpace=wrap;html=1;fillColor=#FFF4C3;" vertex="1" parent="1">
          <mxGeometry x="-1572.27" y="420" width="730" height="500" as="geometry" />
        </mxCell>
        <mxCell id="_vD9ttKoIvzyoLe7udzj-204" value="" style="rounded=1;whiteSpace=wrap;html=1;fillColor=#FFF4C3;" vertex="1" parent="1">
          <mxGeometry x="-1574" y="-230" width="730" height="500" as="geometry" />
        </mxCell>
        <mxCell id="_vD9ttKoIvzyoLe7udzj-10" value="" style="verticalLabelPosition=bottom;sketch=0;aspect=fixed;html=1;verticalAlign=top;strokeColor=none;align=center;outlineConnect=0;shape=mxgraph.citrix.laptop_1;" vertex="1" parent="1">
          <mxGeometry x="380" y="-107" width="91" height="77" as="geometry" />
        </mxCell>
        <mxCell id="_vD9ttKoIvzyoLe7udzj-11" value="" style="verticalLabelPosition=bottom;sketch=0;aspect=fixed;html=1;verticalAlign=top;strokeColor=none;align=center;outlineConnect=0;shape=mxgraph.citrix.laptop_1;" vertex="1" parent="1">
          <mxGeometry x="480" y="-107" width="91" height="77" as="geometry" />
        </mxCell>
        <mxCell id="_vD9ttKoIvzyoLe7udzj-12" value="" style="verticalLabelPosition=bottom;sketch=0;aspect=fixed;html=1;verticalAlign=top;strokeColor=none;align=center;outlineConnect=0;shape=mxgraph.citrix.laptop_1;" vertex="1" parent="1">
          <mxGeometry x="690" y="-107" width="91" height="77" as="geometry" />
        </mxCell>
        <mxCell id="_vD9ttKoIvzyoLe7udzj-13" value="" style="verticalLabelPosition=bottom;sketch=0;aspect=fixed;html=1;verticalAlign=top;strokeColor=none;align=center;outlineConnect=0;shape=mxgraph.citrix.laptop_1;" vertex="1" parent="1">
          <mxGeometry x="590" y="-100" width="82.73" height="70" as="geometry" />
        </mxCell>
        <mxCell id="_vD9ttKoIvzyoLe7udzj-14" value="" style="verticalLabelPosition=bottom;sketch=0;aspect=fixed;html=1;verticalAlign=top;strokeColor=none;align=center;outlineConnect=0;shape=mxgraph.citrix.laptop_1;" vertex="1" parent="1">
          <mxGeometry x="799" y="-107" width="91" height="77" as="geometry" />
        </mxCell>
        <mxCell id="_vD9ttKoIvzyoLe7udzj-15" value="" style="verticalLabelPosition=bottom;sketch=0;aspect=fixed;html=1;verticalAlign=top;strokeColor=none;align=center;outlineConnect=0;shape=mxgraph.citrix.laptop_1;" vertex="1" parent="1">
          <mxGeometry x="910" y="-107" width="91" height="77" as="geometry" />
        </mxCell>
        <mxCell id="_vD9ttKoIvzyoLe7udzj-16" value="" style="verticalLabelPosition=bottom;sketch=0;aspect=fixed;html=1;verticalAlign=top;strokeColor=none;align=center;outlineConnect=0;shape=mxgraph.citrix.laptop_1;" vertex="1" parent="1">
          <mxGeometry x="1220" y="143" width="90" height="76.15" as="geometry" />
        </mxCell>
        <mxCell id="_vD9ttKoIvzyoLe7udzj-17" value="" style="verticalLabelPosition=bottom;sketch=0;aspect=fixed;html=1;verticalAlign=top;strokeColor=none;align=center;outlineConnect=0;shape=mxgraph.citrix.laptop_1;" vertex="1" parent="1">
          <mxGeometry x="1230" y="53" width="91" height="77" as="geometry" />
        </mxCell>
        <mxCell id="_vD9ttKoIvzyoLe7udzj-18" value="" style="verticalLabelPosition=bottom;sketch=0;aspect=fixed;html=1;verticalAlign=top;strokeColor=none;align=center;outlineConnect=0;shape=mxgraph.citrix.laptop_1;" vertex="1" parent="1">
          <mxGeometry x="1230" y="-47" width="90" height="76.15" as="geometry" />
        </mxCell>
        <mxCell id="_vD9ttKoIvzyoLe7udzj-19" value="" style="verticalLabelPosition=bottom;sketch=0;aspect=fixed;html=1;verticalAlign=top;strokeColor=none;align=center;outlineConnect=0;shape=mxgraph.citrix.laptop_1;" vertex="1" parent="1">
          <mxGeometry x="1210" y="523" width="91" height="77" as="geometry" />
        </mxCell>
        <mxCell id="_vD9ttKoIvzyoLe7udzj-20" value="" style="verticalLabelPosition=bottom;sketch=0;aspect=fixed;html=1;verticalAlign=top;strokeColor=none;align=center;outlineConnect=0;shape=mxgraph.citrix.laptop_1;" vertex="1" parent="1">
          <mxGeometry x="1210" y="423" width="90" height="76.15" as="geometry" />
        </mxCell>
        <mxCell id="_vD9ttKoIvzyoLe7udzj-21" value="" style="verticalLabelPosition=bottom;sketch=0;aspect=fixed;html=1;verticalAlign=top;strokeColor=none;align=center;outlineConnect=0;shape=mxgraph.citrix.laptop_1;" vertex="1" parent="1">
          <mxGeometry x="1220" y="333" width="91" height="77" as="geometry" />
        </mxCell>
        <mxCell id="_vD9ttKoIvzyoLe7udzj-22" value="" style="verticalLabelPosition=bottom;sketch=0;aspect=fixed;html=1;verticalAlign=top;strokeColor=none;align=center;outlineConnect=0;shape=mxgraph.citrix.laptop_1;" vertex="1" parent="1">
          <mxGeometry x="1220" y="233" width="90" height="76.15" as="geometry" />
        </mxCell>
        <mxCell id="_vD9ttKoIvzyoLe7udzj-50" style="edgeStyle=orthogonalEdgeStyle;rounded=0;orthogonalLoop=1;jettySize=auto;html=1;exitX=0.5;exitY=0;exitDx=0;exitDy=0;" edge="1" parent="1" target="_vD9ttKoIvzyoLe7udzj-10">
          <mxGeometry relative="1" as="geometry">
            <mxPoint x="693.23" y="93" as="sourcePoint" />
          </mxGeometry>
        </mxCell>
        <mxCell id="_vD9ttKoIvzyoLe7udzj-51" style="edgeStyle=orthogonalEdgeStyle;rounded=0;orthogonalLoop=1;jettySize=auto;html=1;exitX=0.5;exitY=0;exitDx=0;exitDy=0;" edge="1" parent="1" target="_vD9ttKoIvzyoLe7udzj-11">
          <mxGeometry relative="1" as="geometry">
            <mxPoint x="693.23" y="93" as="sourcePoint" />
          </mxGeometry>
        </mxCell>
        <mxCell id="_vD9ttKoIvzyoLe7udzj-53" style="edgeStyle=orthogonalEdgeStyle;rounded=0;orthogonalLoop=1;jettySize=auto;html=1;exitX=0.5;exitY=0;exitDx=0;exitDy=0;" edge="1" parent="1" target="_vD9ttKoIvzyoLe7udzj-13">
          <mxGeometry relative="1" as="geometry">
            <mxPoint x="693.23" y="93" as="sourcePoint" />
          </mxGeometry>
        </mxCell>
        <mxCell id="_vD9ttKoIvzyoLe7udzj-55" style="edgeStyle=orthogonalEdgeStyle;rounded=0;orthogonalLoop=1;jettySize=auto;html=1;exitX=0.5;exitY=0;exitDx=0;exitDy=0;" edge="1" parent="1" target="_vD9ttKoIvzyoLe7udzj-14">
          <mxGeometry relative="1" as="geometry">
            <mxPoint x="693.23" y="93" as="sourcePoint" />
          </mxGeometry>
        </mxCell>
        <mxCell id="_vD9ttKoIvzyoLe7udzj-56" style="edgeStyle=orthogonalEdgeStyle;rounded=0;orthogonalLoop=1;jettySize=auto;html=1;exitX=0.5;exitY=0;exitDx=0;exitDy=0;" edge="1" parent="1" target="_vD9ttKoIvzyoLe7udzj-15">
          <mxGeometry relative="1" as="geometry">
            <mxPoint x="693.23" y="93" as="sourcePoint" />
          </mxGeometry>
        </mxCell>
        <mxCell id="_vD9ttKoIvzyoLe7udzj-25" value="PC 1&lt;br&gt;192.168.1" style="text;html=1;strokeColor=none;fillColor=none;align=center;verticalAlign=middle;whiteSpace=wrap;rounded=0;" vertex="1" parent="1">
          <mxGeometry x="411" y="-136" width="60" height="30" as="geometry" />
        </mxCell>
        <mxCell id="_vD9ttKoIvzyoLe7udzj-26" value="PC 2&lt;br&gt;192.168.2" style="text;html=1;strokeColor=none;fillColor=none;align=center;verticalAlign=middle;whiteSpace=wrap;rounded=0;" vertex="1" parent="1">
          <mxGeometry x="511" y="-136" width="60" height="30" as="geometry" />
        </mxCell>
        <mxCell id="_vD9ttKoIvzyoLe7udzj-27" value="PC 3&lt;br&gt;192.168.3" style="text;html=1;strokeColor=none;fillColor=none;align=center;verticalAlign=middle;whiteSpace=wrap;rounded=0;" vertex="1" parent="1">
          <mxGeometry x="612.73" y="-137" width="60" height="30" as="geometry" />
        </mxCell>
        <mxCell id="_vD9ttKoIvzyoLe7udzj-28" value="PC 4&lt;br&gt;192.168.4" style="text;html=1;strokeColor=none;fillColor=none;align=center;verticalAlign=middle;whiteSpace=wrap;rounded=0;" vertex="1" parent="1">
          <mxGeometry x="721" y="-137" width="60" height="30" as="geometry" />
        </mxCell>
        <mxCell id="_vD9ttKoIvzyoLe7udzj-29" value="PC 5&lt;br&gt;192.168.5" style="text;html=1;strokeColor=none;fillColor=none;align=center;verticalAlign=middle;whiteSpace=wrap;rounded=0;" vertex="1" parent="1">
          <mxGeometry x="830" y="-136" width="60" height="30" as="geometry" />
        </mxCell>
        <mxCell id="_vD9ttKoIvzyoLe7udzj-30" value="PC 6&lt;br&gt;192.168.6" style="text;html=1;strokeColor=none;fillColor=none;align=center;verticalAlign=middle;whiteSpace=wrap;rounded=0;" vertex="1" parent="1">
          <mxGeometry x="941" y="-136" width="60" height="30" as="geometry" />
        </mxCell>
        <mxCell id="_vD9ttKoIvzyoLe7udzj-31" value="" style="verticalLabelPosition=bottom;sketch=0;aspect=fixed;html=1;verticalAlign=top;strokeColor=none;align=center;outlineConnect=0;shape=mxgraph.citrix.laptop_1;" vertex="1" parent="1">
          <mxGeometry x="379.5" y="603" width="91" height="77" as="geometry" />
        </mxCell>
        <mxCell id="_vD9ttKoIvzyoLe7udzj-32" value="" style="verticalLabelPosition=bottom;sketch=0;aspect=fixed;html=1;verticalAlign=top;strokeColor=none;align=center;outlineConnect=0;shape=mxgraph.citrix.laptop_1;" vertex="1" parent="1">
          <mxGeometry x="479.5" y="603" width="91" height="77" as="geometry" />
        </mxCell>
        <mxCell id="_vD9ttKoIvzyoLe7udzj-33" value="" style="verticalLabelPosition=bottom;sketch=0;aspect=fixed;html=1;verticalAlign=top;strokeColor=none;align=center;outlineConnect=0;shape=mxgraph.citrix.laptop_1;" vertex="1" parent="1">
          <mxGeometry x="689.5" y="603" width="91" height="77" as="geometry" />
        </mxCell>
        <mxCell id="_vD9ttKoIvzyoLe7udzj-34" value="" style="verticalLabelPosition=bottom;sketch=0;aspect=fixed;html=1;verticalAlign=top;strokeColor=none;align=center;outlineConnect=0;shape=mxgraph.citrix.laptop_1;" vertex="1" parent="1">
          <mxGeometry x="589.5" y="603" width="82.73" height="70" as="geometry" />
        </mxCell>
        <mxCell id="_vD9ttKoIvzyoLe7udzj-35" value="" style="verticalLabelPosition=bottom;sketch=0;aspect=fixed;html=1;verticalAlign=top;strokeColor=none;align=center;outlineConnect=0;shape=mxgraph.citrix.laptop_1;" vertex="1" parent="1">
          <mxGeometry x="798.5" y="603" width="91" height="77" as="geometry" />
        </mxCell>
        <mxCell id="_vD9ttKoIvzyoLe7udzj-36" value="" style="verticalLabelPosition=bottom;sketch=0;aspect=fixed;html=1;verticalAlign=top;strokeColor=none;align=center;outlineConnect=0;shape=mxgraph.citrix.laptop_1;" vertex="1" parent="1">
          <mxGeometry x="909.5" y="603" width="91" height="77" as="geometry" />
        </mxCell>
        <mxCell id="_vD9ttKoIvzyoLe7udzj-37" value="PC 14&lt;br&gt;192.168.14" style="text;html=1;strokeColor=none;fillColor=none;align=center;verticalAlign=middle;whiteSpace=wrap;rounded=0;" vertex="1" parent="1">
          <mxGeometry x="410.5" y="574" width="60" height="30" as="geometry" />
        </mxCell>
        <mxCell id="_vD9ttKoIvzyoLe7udzj-38" value="PC 15&lt;br&gt;192.168.15" style="text;html=1;strokeColor=none;fillColor=none;align=center;verticalAlign=middle;whiteSpace=wrap;rounded=0;" vertex="1" parent="1">
          <mxGeometry x="510.5" y="574" width="60" height="30" as="geometry" />
        </mxCell>
        <mxCell id="_vD9ttKoIvzyoLe7udzj-39" value="PC 16&lt;br&gt;192.168.16" style="text;html=1;strokeColor=none;fillColor=none;align=center;verticalAlign=middle;whiteSpace=wrap;rounded=0;" vertex="1" parent="1">
          <mxGeometry x="612.23" y="573" width="60" height="30" as="geometry" />
        </mxCell>
        <mxCell id="_vD9ttKoIvzyoLe7udzj-40" value="PC 17&lt;br&gt;192.168.17" style="text;html=1;strokeColor=none;fillColor=none;align=center;verticalAlign=middle;whiteSpace=wrap;rounded=0;" vertex="1" parent="1">
          <mxGeometry x="720.5" y="573" width="60" height="30" as="geometry" />
        </mxCell>
        <mxCell id="_vD9ttKoIvzyoLe7udzj-41" value="PC 18&lt;br&gt;192.168.18" style="text;html=1;strokeColor=none;fillColor=none;align=center;verticalAlign=middle;whiteSpace=wrap;rounded=0;" vertex="1" parent="1">
          <mxGeometry x="829.5" y="574" width="60" height="30" as="geometry" />
        </mxCell>
        <mxCell id="_vD9ttKoIvzyoLe7udzj-42" value="PC 19&lt;br&gt;192.168.19" style="text;html=1;strokeColor=none;fillColor=none;align=center;verticalAlign=middle;whiteSpace=wrap;rounded=0;" vertex="1" parent="1">
          <mxGeometry x="940.5" y="574" width="60" height="30" as="geometry" />
        </mxCell>
        <mxCell id="_vD9ttKoIvzyoLe7udzj-43" value="PC 7&lt;br&gt;192.168.7" style="text;html=1;strokeColor=none;fillColor=none;align=center;verticalAlign=middle;whiteSpace=wrap;rounded=0;" vertex="1" parent="1">
          <mxGeometry x="1370" y="-23.93" width="60" height="30" as="geometry" />
        </mxCell>
        <mxCell id="_vD9ttKoIvzyoLe7udzj-44" value="PC 8&lt;br&gt;192.168.8" style="text;html=1;strokeColor=none;fillColor=none;align=center;verticalAlign=middle;whiteSpace=wrap;rounded=0;" vertex="1" parent="1">
          <mxGeometry x="1370" y="76.5" width="60" height="30" as="geometry" />
        </mxCell>
        <mxCell id="_vD9ttKoIvzyoLe7udzj-45" value="PC 9&lt;br&gt;192.168.9" style="text;html=1;strokeColor=none;fillColor=none;align=center;verticalAlign=middle;whiteSpace=wrap;rounded=0;" vertex="1" parent="1">
          <mxGeometry x="1370" y="163" width="60" height="30" as="geometry" />
        </mxCell>
        <mxCell id="_vD9ttKoIvzyoLe7udzj-46" value="PC 10&lt;br&gt;192.168.10" style="text;html=1;strokeColor=none;fillColor=none;align=center;verticalAlign=middle;whiteSpace=wrap;rounded=0;" vertex="1" parent="1">
          <mxGeometry x="1370" y="256.07" width="60" height="30" as="geometry" />
        </mxCell>
        <mxCell id="_vD9ttKoIvzyoLe7udzj-47" value="PC 11&lt;br&gt;192.168.11" style="text;html=1;strokeColor=none;fillColor=none;align=center;verticalAlign=middle;whiteSpace=wrap;rounded=0;" vertex="1" parent="1">
          <mxGeometry x="1370" y="356.5" width="60" height="30" as="geometry" />
        </mxCell>
        <mxCell id="_vD9ttKoIvzyoLe7udzj-48" value="PC 12&lt;br&gt;192.168.12" style="text;html=1;strokeColor=none;fillColor=none;align=center;verticalAlign=middle;whiteSpace=wrap;rounded=0;" vertex="1" parent="1">
          <mxGeometry x="1370" y="453" width="60" height="30" as="geometry" />
        </mxCell>
        <mxCell id="_vD9ttKoIvzyoLe7udzj-49" value="PC 13&lt;br&gt;192.168.13" style="text;html=1;strokeColor=none;fillColor=none;align=center;verticalAlign=middle;whiteSpace=wrap;rounded=0;" vertex="1" parent="1">
          <mxGeometry x="1370" y="546.5" width="60" height="30" as="geometry" />
        </mxCell>
        <mxCell id="_vD9ttKoIvzyoLe7udzj-57" value="" style="image;html=1;image=img/lib/clip_art/computers/Server_Tower_128x128.png" vertex="1" parent="1">
          <mxGeometry x="250" y="-107" width="80" height="80" as="geometry" />
        </mxCell>
        <mxCell id="_vD9ttKoIvzyoLe7udzj-58" value="" style="image;html=1;image=img/lib/clip_art/computers/Server_Tower_128x128.png" vertex="1" parent="1">
          <mxGeometry x="110" y="-108.5" width="80" height="80" as="geometry" />
        </mxCell>
        <mxCell id="_vD9ttKoIvzyoLe7udzj-61" style="edgeStyle=orthogonalEdgeStyle;rounded=0;orthogonalLoop=1;jettySize=auto;html=1;exitX=0.5;exitY=0;exitDx=0;exitDy=0;" edge="1" parent="1" source="_vD9ttKoIvzyoLe7udzj-60" target="_vD9ttKoIvzyoLe7udzj-12">
          <mxGeometry relative="1" as="geometry">
            <Array as="points">
              <mxPoint x="690" y="93" />
              <mxPoint x="736" y="93" />
            </Array>
          </mxGeometry>
        </mxCell>
        <mxCell id="_vD9ttKoIvzyoLe7udzj-64" style="edgeStyle=orthogonalEdgeStyle;rounded=0;orthogonalLoop=1;jettySize=auto;html=1;exitX=1;exitY=0.5;exitDx=0;exitDy=0;" edge="1" parent="1" source="_vD9ttKoIvzyoLe7udzj-60" target="_vD9ttKoIvzyoLe7udzj-22">
          <mxGeometry relative="1" as="geometry" />
        </mxCell>
        <mxCell id="_vD9ttKoIvzyoLe7udzj-65" style="edgeStyle=orthogonalEdgeStyle;rounded=0;orthogonalLoop=1;jettySize=auto;html=1;exitX=1;exitY=0.5;exitDx=0;exitDy=0;" edge="1" parent="1" source="_vD9ttKoIvzyoLe7udzj-60" target="_vD9ttKoIvzyoLe7udzj-16">
          <mxGeometry relative="1" as="geometry">
            <mxPoint x="1140" y="173" as="targetPoint" />
            <Array as="points">
              <mxPoint x="1111" y="269" />
              <mxPoint x="1111" y="183" />
            </Array>
          </mxGeometry>
        </mxCell>
        <mxCell id="_vD9ttKoIvzyoLe7udzj-66" style="edgeStyle=orthogonalEdgeStyle;rounded=0;orthogonalLoop=1;jettySize=auto;html=1;exitX=1;exitY=0.5;exitDx=0;exitDy=0;" edge="1" parent="1" source="_vD9ttKoIvzyoLe7udzj-60" target="_vD9ttKoIvzyoLe7udzj-18">
          <mxGeometry relative="1" as="geometry">
            <mxPoint x="1110" y="3" as="targetPoint" />
            <Array as="points">
              <mxPoint x="1110" y="269" />
              <mxPoint x="1110" y="3" />
            </Array>
          </mxGeometry>
        </mxCell>
        <mxCell id="_vD9ttKoIvzyoLe7udzj-67" style="edgeStyle=orthogonalEdgeStyle;rounded=0;orthogonalLoop=1;jettySize=auto;html=1;exitX=1;exitY=0.5;exitDx=0;exitDy=0;" edge="1" parent="1" source="_vD9ttKoIvzyoLe7udzj-60" target="_vD9ttKoIvzyoLe7udzj-17">
          <mxGeometry relative="1" as="geometry">
            <mxPoint x="1110" y="103" as="targetPoint" />
            <Array as="points">
              <mxPoint x="1111" y="269" />
              <mxPoint x="1111" y="103" />
            </Array>
          </mxGeometry>
        </mxCell>
        <mxCell id="_vD9ttKoIvzyoLe7udzj-68" style="edgeStyle=orthogonalEdgeStyle;rounded=0;orthogonalLoop=1;jettySize=auto;html=1;exitX=1;exitY=0.5;exitDx=0;exitDy=0;" edge="1" parent="1" source="_vD9ttKoIvzyoLe7udzj-60" target="_vD9ttKoIvzyoLe7udzj-19">
          <mxGeometry relative="1" as="geometry">
            <mxPoint x="1110" y="583" as="targetPoint" />
            <Array as="points">
              <mxPoint x="1111" y="269" />
              <mxPoint x="1111" y="583" />
            </Array>
          </mxGeometry>
        </mxCell>
        <mxCell id="_vD9ttKoIvzyoLe7udzj-69" style="edgeStyle=orthogonalEdgeStyle;rounded=0;orthogonalLoop=1;jettySize=auto;html=1;exitX=1;exitY=0.5;exitDx=0;exitDy=0;" edge="1" parent="1" source="_vD9ttKoIvzyoLe7udzj-60" target="_vD9ttKoIvzyoLe7udzj-20">
          <mxGeometry relative="1" as="geometry">
            <mxPoint x="1110" y="463" as="targetPoint" />
            <Array as="points">
              <mxPoint x="1111" y="269" />
              <mxPoint x="1111" y="463" />
            </Array>
          </mxGeometry>
        </mxCell>
        <mxCell id="_vD9ttKoIvzyoLe7udzj-70" style="edgeStyle=orthogonalEdgeStyle;rounded=0;orthogonalLoop=1;jettySize=auto;html=1;exitX=1;exitY=0.5;exitDx=0;exitDy=0;" edge="1" parent="1" source="_vD9ttKoIvzyoLe7udzj-60">
          <mxGeometry relative="1" as="geometry">
            <mxPoint x="1210" y="383" as="targetPoint" />
            <Array as="points">
              <mxPoint x="1111" y="269" />
              <mxPoint x="1111" y="383" />
            </Array>
          </mxGeometry>
        </mxCell>
        <mxCell id="_vD9ttKoIvzyoLe7udzj-71" style="edgeStyle=orthogonalEdgeStyle;rounded=0;orthogonalLoop=1;jettySize=auto;html=1;entryX=0.5;entryY=0;entryDx=0;entryDy=0;" edge="1" parent="1" source="_vD9ttKoIvzyoLe7udzj-60" target="_vD9ttKoIvzyoLe7udzj-39">
          <mxGeometry relative="1" as="geometry" />
        </mxCell>
        <mxCell id="_vD9ttKoIvzyoLe7udzj-72" style="edgeStyle=orthogonalEdgeStyle;rounded=0;orthogonalLoop=1;jettySize=auto;html=1;exitX=0.5;exitY=1;exitDx=0;exitDy=0;entryX=0.5;entryY=0;entryDx=0;entryDy=0;" edge="1" parent="1" source="_vD9ttKoIvzyoLe7udzj-60" target="_vD9ttKoIvzyoLe7udzj-40">
          <mxGeometry relative="1" as="geometry" />
        </mxCell>
        <mxCell id="_vD9ttKoIvzyoLe7udzj-73" style="edgeStyle=orthogonalEdgeStyle;rounded=0;orthogonalLoop=1;jettySize=auto;html=1;exitX=0.5;exitY=1;exitDx=0;exitDy=0;entryX=0.5;entryY=0;entryDx=0;entryDy=0;" edge="1" parent="1" source="_vD9ttKoIvzyoLe7udzj-60" target="_vD9ttKoIvzyoLe7udzj-41">
          <mxGeometry relative="1" as="geometry" />
        </mxCell>
        <mxCell id="_vD9ttKoIvzyoLe7udzj-74" style="edgeStyle=orthogonalEdgeStyle;rounded=0;orthogonalLoop=1;jettySize=auto;html=1;exitX=0.5;exitY=1;exitDx=0;exitDy=0;entryX=0.5;entryY=0;entryDx=0;entryDy=0;" edge="1" parent="1" source="_vD9ttKoIvzyoLe7udzj-60" target="_vD9ttKoIvzyoLe7udzj-42">
          <mxGeometry relative="1" as="geometry" />
        </mxCell>
        <mxCell id="_vD9ttKoIvzyoLe7udzj-75" style="edgeStyle=orthogonalEdgeStyle;rounded=0;orthogonalLoop=1;jettySize=auto;html=1;exitX=0.5;exitY=1;exitDx=0;exitDy=0;entryX=0.5;entryY=0;entryDx=0;entryDy=0;" edge="1" parent="1" source="_vD9ttKoIvzyoLe7udzj-60" target="_vD9ttKoIvzyoLe7udzj-38">
          <mxGeometry relative="1" as="geometry" />
        </mxCell>
        <mxCell id="_vD9ttKoIvzyoLe7udzj-76" style="edgeStyle=orthogonalEdgeStyle;rounded=0;orthogonalLoop=1;jettySize=auto;html=1;exitX=0.5;exitY=1;exitDx=0;exitDy=0;entryX=0.5;entryY=0;entryDx=0;entryDy=0;" edge="1" parent="1" source="_vD9ttKoIvzyoLe7udzj-60" target="_vD9ttKoIvzyoLe7udzj-37">
          <mxGeometry relative="1" as="geometry" />
        </mxCell>
        <mxCell id="_vD9ttKoIvzyoLe7udzj-79" style="edgeStyle=orthogonalEdgeStyle;rounded=0;orthogonalLoop=1;jettySize=auto;html=1;exitX=0;exitY=0.5;exitDx=0;exitDy=0;entryX=0.5;entryY=1;entryDx=0;entryDy=0;" edge="1" parent="1" source="_vD9ttKoIvzyoLe7udzj-60" target="_vD9ttKoIvzyoLe7udzj-57">
          <mxGeometry relative="1" as="geometry">
            <Array as="points">
              <mxPoint x="590" y="269" />
              <mxPoint x="590" y="143" />
              <mxPoint x="290" y="143" />
            </Array>
          </mxGeometry>
        </mxCell>
        <mxCell id="_vD9ttKoIvzyoLe7udzj-80" style="edgeStyle=orthogonalEdgeStyle;rounded=0;orthogonalLoop=1;jettySize=auto;html=1;exitX=0;exitY=0.5;exitDx=0;exitDy=0;entryX=0.5;entryY=1;entryDx=0;entryDy=0;" edge="1" parent="1" source="_vD9ttKoIvzyoLe7udzj-60" target="_vD9ttKoIvzyoLe7udzj-58">
          <mxGeometry relative="1" as="geometry">
            <Array as="points">
              <mxPoint x="590" y="269" />
              <mxPoint x="590" y="143" />
              <mxPoint x="150" y="143" />
            </Array>
          </mxGeometry>
        </mxCell>
        <mxCell id="_vD9ttKoIvzyoLe7udzj-196" style="edgeStyle=orthogonalEdgeStyle;rounded=0;orthogonalLoop=1;jettySize=auto;html=1;exitX=0;exitY=0.5;exitDx=0;exitDy=0;entryX=1;entryY=0.5;entryDx=0;entryDy=0;" edge="1" parent="1" source="_vD9ttKoIvzyoLe7udzj-60" target="_vD9ttKoIvzyoLe7udzj-123">
          <mxGeometry relative="1" as="geometry" />
        </mxCell>
        <mxCell id="_vD9ttKoIvzyoLe7udzj-60" value="" style="image;html=1;image=img/lib/clip_art/computers/Server_Rack_128x128.png" vertex="1" parent="1">
          <mxGeometry x="650" y="229.14999999999998" width="80" height="80" as="geometry" />
        </mxCell>
        <mxCell id="_vD9ttKoIvzyoLe7udzj-77" value="Servidor Archivos&lt;br&gt;192.168.20" style="text;html=1;strokeColor=none;fillColor=none;align=center;verticalAlign=middle;whiteSpace=wrap;rounded=0;" vertex="1" parent="1">
          <mxGeometry x="120" y="-147" width="60" height="30" as="geometry" />
        </mxCell>
        <mxCell id="_vD9ttKoIvzyoLe7udzj-78" value="Servidor Copias&lt;br&gt;192.168.21" style="text;html=1;strokeColor=none;fillColor=none;align=center;verticalAlign=middle;whiteSpace=wrap;rounded=0;" vertex="1" parent="1">
          <mxGeometry x="260" y="-147" width="60" height="30" as="geometry" />
        </mxCell>
        <mxCell id="_vD9ttKoIvzyoLe7udzj-81" value="Rack con patch panel y switch (32 puertos)" style="text;html=1;strokeColor=none;fillColor=none;align=center;verticalAlign=middle;whiteSpace=wrap;rounded=0;" vertex="1" parent="1">
          <mxGeometry x="720" y="303" width="129" height="30" as="geometry" />
        </mxCell>
        <mxCell id="_vD9ttKoIvzyoLe7udzj-102" style="edgeStyle=orthogonalEdgeStyle;rounded=0;orthogonalLoop=1;jettySize=auto;html=1;exitX=0.5;exitY=0;exitDx=0;exitDy=0;" edge="1" parent="1" source="_vD9ttKoIvzyoLe7udzj-82" target="_vD9ttKoIvzyoLe7udzj-101">
          <mxGeometry relative="1" as="geometry" />
        </mxCell>
        <mxCell id="_vD9ttKoIvzyoLe7udzj-103" style="edgeStyle=orthogonalEdgeStyle;rounded=0;orthogonalLoop=1;jettySize=auto;html=1;exitX=0.5;exitY=0;exitDx=0;exitDy=0;" edge="1" parent="1" source="_vD9ttKoIvzyoLe7udzj-82" target="_vD9ttKoIvzyoLe7udzj-83">
          <mxGeometry relative="1" as="geometry" />
        </mxCell>
        <mxCell id="_vD9ttKoIvzyoLe7udzj-104" style="edgeStyle=orthogonalEdgeStyle;rounded=0;orthogonalLoop=1;jettySize=auto;html=1;exitX=0.5;exitY=0;exitDx=0;exitDy=0;" edge="1" parent="1" source="_vD9ttKoIvzyoLe7udzj-82" target="_vD9ttKoIvzyoLe7udzj-85">
          <mxGeometry relative="1" as="geometry" />
        </mxCell>
        <mxCell id="_vD9ttKoIvzyoLe7udzj-105" style="edgeStyle=orthogonalEdgeStyle;rounded=0;orthogonalLoop=1;jettySize=auto;html=1;exitX=0.5;exitY=0;exitDx=0;exitDy=0;" edge="1" parent="1" source="_vD9ttKoIvzyoLe7udzj-82" target="_vD9ttKoIvzyoLe7udzj-84">
          <mxGeometry relative="1" as="geometry" />
        </mxCell>
        <mxCell id="_vD9ttKoIvzyoLe7udzj-106" style="edgeStyle=orthogonalEdgeStyle;rounded=0;orthogonalLoop=1;jettySize=auto;html=1;exitX=0.5;exitY=0;exitDx=0;exitDy=0;" edge="1" parent="1" source="_vD9ttKoIvzyoLe7udzj-82" target="_vD9ttKoIvzyoLe7udzj-86">
          <mxGeometry relative="1" as="geometry" />
        </mxCell>
        <mxCell id="_vD9ttKoIvzyoLe7udzj-202" style="edgeStyle=orthogonalEdgeStyle;rounded=0;orthogonalLoop=1;jettySize=auto;html=1;exitX=0.5;exitY=1;exitDx=0;exitDy=0;entryX=0;entryY=0.25;entryDx=0;entryDy=0;" edge="1" parent="1" source="_vD9ttKoIvzyoLe7udzj-82" target="_vD9ttKoIvzyoLe7udzj-123">
          <mxGeometry relative="1" as="geometry" />
        </mxCell>
        <mxCell id="_vD9ttKoIvzyoLe7udzj-82" value="" style="image;html=1;image=img/lib/clip_art/computers/Server_Rack_128x128.png" vertex="1" parent="1">
          <mxGeometry x="-1249" y="110.99999999999997" width="80" height="80" as="geometry" />
        </mxCell>
        <mxCell id="_vD9ttKoIvzyoLe7udzj-83" value="" style="verticalLabelPosition=bottom;sketch=0;aspect=fixed;html=1;verticalAlign=top;strokeColor=none;align=center;outlineConnect=0;shape=mxgraph.citrix.laptop_1;" vertex="1" parent="1">
          <mxGeometry x="-1370" y="-109" width="91" height="77" as="geometry" />
        </mxCell>
        <mxCell id="_vD9ttKoIvzyoLe7udzj-84" value="" style="verticalLabelPosition=bottom;sketch=0;aspect=fixed;html=1;verticalAlign=top;strokeColor=none;align=center;outlineConnect=0;shape=mxgraph.citrix.laptop_1;" vertex="1" parent="1">
          <mxGeometry x="-1160" y="-109" width="91" height="77" as="geometry" />
        </mxCell>
        <mxCell id="_vD9ttKoIvzyoLe7udzj-85" value="" style="verticalLabelPosition=bottom;sketch=0;aspect=fixed;html=1;verticalAlign=top;strokeColor=none;align=center;outlineConnect=0;shape=mxgraph.citrix.laptop_1;" vertex="1" parent="1">
          <mxGeometry x="-1260" y="-102" width="82.73" height="70" as="geometry" />
        </mxCell>
        <mxCell id="_vD9ttKoIvzyoLe7udzj-86" value="" style="verticalLabelPosition=bottom;sketch=0;aspect=fixed;html=1;verticalAlign=top;strokeColor=none;align=center;outlineConnect=0;shape=mxgraph.citrix.laptop_1;" vertex="1" parent="1">
          <mxGeometry x="-1051" y="-109" width="91" height="77" as="geometry" />
        </mxCell>
        <mxCell id="_vD9ttKoIvzyoLe7udzj-87" value="PC 30&lt;br&gt;192.168.30" style="text;html=1;strokeColor=none;fillColor=none;align=center;verticalAlign=middle;whiteSpace=wrap;rounded=0;" vertex="1" parent="1">
          <mxGeometry x="-1439" y="-138" width="60" height="30" as="geometry" />
        </mxCell>
        <mxCell id="_vD9ttKoIvzyoLe7udzj-88" value="PC 31&lt;br&gt;192.168.31" style="text;html=1;strokeColor=none;fillColor=none;align=center;verticalAlign=middle;whiteSpace=wrap;rounded=0;" vertex="1" parent="1">
          <mxGeometry x="-1339" y="-138" width="60" height="30" as="geometry" />
        </mxCell>
        <mxCell id="_vD9ttKoIvzyoLe7udzj-89" value="PC 32&lt;br&gt;192.168.32" style="text;html=1;strokeColor=none;fillColor=none;align=center;verticalAlign=middle;whiteSpace=wrap;rounded=0;" vertex="1" parent="1">
          <mxGeometry x="-1237.27" y="-139" width="60" height="30" as="geometry" />
        </mxCell>
        <mxCell id="_vD9ttKoIvzyoLe7udzj-90" value="PC 33&lt;br&gt;192.168.33" style="text;html=1;strokeColor=none;fillColor=none;align=center;verticalAlign=middle;whiteSpace=wrap;rounded=0;" vertex="1" parent="1">
          <mxGeometry x="-1129" y="-139" width="60" height="30" as="geometry" />
        </mxCell>
        <mxCell id="_vD9ttKoIvzyoLe7udzj-91" value="PC 34&lt;br&gt;192.168.34" style="text;html=1;strokeColor=none;fillColor=none;align=center;verticalAlign=middle;whiteSpace=wrap;rounded=0;" vertex="1" parent="1">
          <mxGeometry x="-1020" y="-138" width="60" height="30" as="geometry" />
        </mxCell>
        <mxCell id="_vD9ttKoIvzyoLe7udzj-101" value="" style="verticalLabelPosition=bottom;sketch=0;aspect=fixed;html=1;verticalAlign=top;strokeColor=none;align=center;outlineConnect=0;shape=mxgraph.citrix.laptop_1;" vertex="1" parent="1">
          <mxGeometry x="-1470" y="-105.5" width="91" height="77" as="geometry" />
        </mxCell>
        <mxCell id="_vD9ttKoIvzyoLe7udzj-107" value="Rack con patch panel y switch (32 puertos)" style="text;html=1;strokeColor=none;fillColor=none;align=center;verticalAlign=middle;whiteSpace=wrap;rounded=0;" vertex="1" parent="1">
          <mxGeometry x="-1177.27" y="191" width="129" height="30" as="geometry" />
        </mxCell>
        <mxCell id="_vD9ttKoIvzyoLe7udzj-108" value="&lt;font style=&quot;font-size: 24px;&quot;&gt;MICROINFORMÁTICA&lt;/font&gt;" style="text;html=1;strokeColor=#000000;fillColor=#FFD966;align=center;verticalAlign=middle;whiteSpace=wrap;rounded=0;" vertex="1" parent="1">
          <mxGeometry x="-1514" y="121" width="264" height="30" as="geometry" />
        </mxCell>
        <mxCell id="_vD9ttKoIvzyoLe7udzj-109" value="&lt;font style=&quot;font-size: 24px;&quot;&gt;SALA ALUMNOS&lt;/font&gt;" style="text;html=1;strokeColor=#000000;fillColor=#FFD966;align=center;verticalAlign=middle;whiteSpace=wrap;rounded=0;" vertex="1" parent="1">
          <mxGeometry x="754.5" y="189.15" width="215.5" height="30" as="geometry" />
        </mxCell>
        <mxCell id="_vD9ttKoIvzyoLe7udzj-111" value="" style="verticalLabelPosition=bottom;sketch=0;aspect=fixed;html=1;verticalAlign=top;strokeColor=none;align=center;outlineConnect=0;shape=mxgraph.citrix.laptop_1;" vertex="1" parent="1">
          <mxGeometry x="-1219" y="753.75" width="91" height="77" as="geometry" />
        </mxCell>
        <mxCell id="_vD9ttKoIvzyoLe7udzj-112" value="PC 40&lt;br&gt;192.168.40" style="text;html=1;strokeColor=none;fillColor=none;align=center;verticalAlign=middle;whiteSpace=wrap;rounded=0;" vertex="1" parent="1">
          <mxGeometry x="-1288" y="724.75" width="60" height="30" as="geometry" />
        </mxCell>
        <mxCell id="_vD9ttKoIvzyoLe7udzj-113" value="PC 41&lt;br&gt;192.168.41" style="text;html=1;strokeColor=none;fillColor=none;align=center;verticalAlign=middle;whiteSpace=wrap;rounded=0;" vertex="1" parent="1">
          <mxGeometry x="-1188" y="724.75" width="60" height="30" as="geometry" />
        </mxCell>
        <mxCell id="_vD9ttKoIvzyoLe7udzj-114" value="" style="verticalLabelPosition=bottom;sketch=0;aspect=fixed;html=1;verticalAlign=top;strokeColor=none;align=center;outlineConnect=0;shape=mxgraph.citrix.laptop_1;" vertex="1" parent="1">
          <mxGeometry x="-1319" y="757.25" width="91" height="77" as="geometry" />
        </mxCell>
        <mxCell id="_vD9ttKoIvzyoLe7udzj-119" style="edgeStyle=orthogonalEdgeStyle;rounded=0;orthogonalLoop=1;jettySize=auto;html=1;exitX=0.5;exitY=1;exitDx=0;exitDy=0;entryX=0.5;entryY=0;entryDx=0;entryDy=0;" edge="1" parent="1" source="_vD9ttKoIvzyoLe7udzj-118" target="_vD9ttKoIvzyoLe7udzj-112">
          <mxGeometry relative="1" as="geometry" />
        </mxCell>
        <mxCell id="_vD9ttKoIvzyoLe7udzj-120" style="edgeStyle=orthogonalEdgeStyle;rounded=0;orthogonalLoop=1;jettySize=auto;html=1;exitX=0.5;exitY=1;exitDx=0;exitDy=0;entryX=0.5;entryY=0;entryDx=0;entryDy=0;" edge="1" parent="1" source="_vD9ttKoIvzyoLe7udzj-118" target="_vD9ttKoIvzyoLe7udzj-113">
          <mxGeometry relative="1" as="geometry" />
        </mxCell>
        <mxCell id="_vD9ttKoIvzyoLe7udzj-203" style="edgeStyle=orthogonalEdgeStyle;rounded=0;orthogonalLoop=1;jettySize=auto;html=1;exitX=0.5;exitY=0;exitDx=0;exitDy=0;entryX=0;entryY=0.75;entryDx=0;entryDy=0;" edge="1" parent="1" source="_vD9ttKoIvzyoLe7udzj-118" target="_vD9ttKoIvzyoLe7udzj-123">
          <mxGeometry relative="1" as="geometry" />
        </mxCell>
        <mxCell id="_vD9ttKoIvzyoLe7udzj-118" value="" style="image;html=1;image=img/lib/clip_art/computers/Server_Rack_128x128.png" vertex="1" parent="1">
          <mxGeometry x="-1249" y="481" width="80" height="80" as="geometry" />
        </mxCell>
        <mxCell id="_vD9ttKoIvzyoLe7udzj-121" value="Rack con patch panel y switch (5 puertos)" style="text;html=1;strokeColor=none;fillColor=none;align=center;verticalAlign=middle;whiteSpace=wrap;rounded=0;" vertex="1" parent="1">
          <mxGeometry x="-1177.27" y="551" width="129" height="30" as="geometry" />
        </mxCell>
        <mxCell id="_vD9ttKoIvzyoLe7udzj-122" value="&lt;font style=&quot;font-size: 24px;&quot;&gt;ENTRADA&lt;/font&gt;" style="text;html=1;strokeColor=#000000;fillColor=#FFD966;align=center;verticalAlign=middle;whiteSpace=wrap;rounded=0;" vertex="1" parent="1">
          <mxGeometry x="-1480" y="616" width="141" height="30" as="geometry" />
        </mxCell>
        <mxCell id="_vD9ttKoIvzyoLe7udzj-127" style="edgeStyle=orthogonalEdgeStyle;rounded=0;orthogonalLoop=1;jettySize=auto;html=1;exitX=0.5;exitY=0;exitDx=0;exitDy=0;" edge="1" parent="1" source="_vD9ttKoIvzyoLe7udzj-123" target="_vD9ttKoIvzyoLe7udzj-124">
          <mxGeometry relative="1" as="geometry" />
        </mxCell>
        <mxCell id="_vD9ttKoIvzyoLe7udzj-134" style="edgeStyle=orthogonalEdgeStyle;rounded=0;orthogonalLoop=1;jettySize=auto;html=1;exitX=0.5;exitY=1;exitDx=0;exitDy=0;" edge="1" parent="1" source="_vD9ttKoIvzyoLe7udzj-123" target="_vD9ttKoIvzyoLe7udzj-133">
          <mxGeometry relative="1" as="geometry" />
        </mxCell>
        <mxCell id="_vD9ttKoIvzyoLe7udzj-136" style="edgeStyle=orthogonalEdgeStyle;rounded=0;orthogonalLoop=1;jettySize=auto;html=1;exitX=0.5;exitY=1;exitDx=0;exitDy=0;entryX=0.5;entryY=0;entryDx=0;entryDy=0;" edge="1" parent="1" source="_vD9ttKoIvzyoLe7udzj-123" target="_vD9ttKoIvzyoLe7udzj-135">
          <mxGeometry relative="1" as="geometry" />
        </mxCell>
        <mxCell id="_vD9ttKoIvzyoLe7udzj-123" value="" style="image;html=1;image=img/lib/clip_art/computers/Server_Rack_128x128.png" vertex="1" parent="1">
          <mxGeometry x="-570" y="223.25" width="80" height="80" as="geometry" />
        </mxCell>
        <mxCell id="_vD9ttKoIvzyoLe7udzj-124" value="" style="verticalLabelPosition=bottom;sketch=0;aspect=fixed;html=1;verticalAlign=top;strokeColor=none;align=center;outlineConnect=0;shape=mxgraph.citrix.router;" vertex="1" parent="1">
          <mxGeometry x="-557.5" y="40" width="55" height="36.5" as="geometry" />
        </mxCell>
        <mxCell id="_vD9ttKoIvzyoLe7udzj-126" value="Rack con patch panel y switch (16 puertos)" style="text;html=1;strokeColor=none;fillColor=none;align=center;verticalAlign=middle;whiteSpace=wrap;rounded=0;" vertex="1" parent="1">
          <mxGeometry x="-510" y="310" width="129" height="30" as="geometry" />
        </mxCell>
        <mxCell id="_vD9ttKoIvzyoLe7udzj-128" value="Router con Wi-Fi&lt;br&gt;192.168.1.0" style="text;html=1;strokeColor=none;fillColor=none;align=center;verticalAlign=middle;whiteSpace=wrap;rounded=0;" vertex="1" parent="1">
          <mxGeometry x="-502" y="76.25" width="72" height="30" as="geometry" />
        </mxCell>
        <mxCell id="_vD9ttKoIvzyoLe7udzj-129" value="" style="verticalLabelPosition=bottom;sketch=0;aspect=fixed;html=1;verticalAlign=top;strokeColor=none;align=center;outlineConnect=0;shape=mxgraph.citrix.printer;" vertex="1" parent="1">
          <mxGeometry x="-770" y="912.5" width="70" height="70" as="geometry" />
        </mxCell>
        <mxCell id="_vD9ttKoIvzyoLe7udzj-132" value="" style="verticalLabelPosition=bottom;sketch=0;aspect=fixed;html=1;verticalAlign=top;strokeColor=none;align=center;outlineConnect=0;shape=mxgraph.citrix.laptop_1;" vertex="1" parent="1">
          <mxGeometry x="-590" y="909" width="91" height="77" as="geometry" />
        </mxCell>
        <mxCell id="_vD9ttKoIvzyoLe7udzj-133" value="PC 50&lt;br&gt;192.168.1.50" style="text;html=1;strokeColor=none;fillColor=none;align=center;verticalAlign=middle;whiteSpace=wrap;rounded=0;" vertex="1" parent="1">
          <mxGeometry x="-559" y="880" width="60" height="30" as="geometry" />
        </mxCell>
        <mxCell id="_vD9ttKoIvzyoLe7udzj-135" value="PRINTER 1&lt;br&gt;192.168.1.51" style="text;html=1;strokeColor=none;fillColor=none;align=center;verticalAlign=middle;whiteSpace=wrap;rounded=0;" vertex="1" parent="1">
          <mxGeometry x="-760" y="879" width="70" height="30" as="geometry" />
        </mxCell>
        <mxCell id="_vD9ttKoIvzyoLe7udzj-137" value="" style="verticalLabelPosition=bottom;sketch=0;aspect=fixed;html=1;verticalAlign=top;strokeColor=none;align=center;outlineConnect=0;shape=mxgraph.citrix.cell_phone;" vertex="1" parent="1">
          <mxGeometry x="-300" y="680" width="25" height="60" as="geometry" />
        </mxCell>
        <mxCell id="_vD9ttKoIvzyoLe7udzj-138" value="PHONE 1&lt;br&gt;192.168.1..61" style="text;html=1;strokeColor=none;fillColor=none;align=center;verticalAlign=middle;whiteSpace=wrap;rounded=0;" vertex="1" parent="1">
          <mxGeometry x="-317.5" y="755.75" width="60" height="30" as="geometry" />
        </mxCell>
        <mxCell id="_vD9ttKoIvzyoLe7udzj-139" value="" style="verticalLabelPosition=bottom;sketch=0;aspect=fixed;html=1;verticalAlign=top;strokeColor=none;align=center;outlineConnect=0;shape=mxgraph.citrix.cell_phone;" vertex="1" parent="1">
          <mxGeometry x="-300" y="816" width="25" height="60" as="geometry" />
        </mxCell>
        <mxCell id="_vD9ttKoIvzyoLe7udzj-140" value="PHONE 2&lt;br&gt;192.168.1..62" style="text;html=1;strokeColor=none;fillColor=none;align=center;verticalAlign=middle;whiteSpace=wrap;rounded=0;" vertex="1" parent="1">
          <mxGeometry x="-317.5" y="891.75" width="60" height="30" as="geometry" />
        </mxCell>
        <mxCell id="_vD9ttKoIvzyoLe7udzj-141" value="" style="verticalLabelPosition=bottom;sketch=0;aspect=fixed;html=1;verticalAlign=top;strokeColor=none;align=center;outlineConnect=0;shape=mxgraph.citrix.cell_phone;" vertex="1" parent="1">
          <mxGeometry x="-300" y="946" width="25" height="60" as="geometry" />
        </mxCell>
        <mxCell id="_vD9ttKoIvzyoLe7udzj-142" value="PHONE 3&lt;br&gt;192.168.1..63" style="text;html=1;strokeColor=none;fillColor=none;align=center;verticalAlign=middle;whiteSpace=wrap;rounded=0;" vertex="1" parent="1">
          <mxGeometry x="-317.5" y="1021.75" width="60" height="30" as="geometry" />
        </mxCell>
        <mxCell id="_vD9ttKoIvzyoLe7udzj-143" value="" style="verticalLabelPosition=bottom;sketch=0;aspect=fixed;html=1;verticalAlign=top;strokeColor=none;align=center;outlineConnect=0;shape=mxgraph.citrix.cell_phone;" vertex="1" parent="1">
          <mxGeometry x="-300" y="1082" width="25" height="60" as="geometry" />
        </mxCell>
        <mxCell id="_vD9ttKoIvzyoLe7udzj-144" value="PHONE 4&lt;br&gt;192.168.1..64" style="text;html=1;strokeColor=none;fillColor=none;align=center;verticalAlign=middle;whiteSpace=wrap;rounded=0;" vertex="1" parent="1">
          <mxGeometry x="-317.5" y="1157.75" width="60" height="30" as="geometry" />
        </mxCell>
        <mxCell id="_vD9ttKoIvzyoLe7udzj-153" value="PHONE 5&lt;br&gt;192.168.1..65" style="text;html=1;strokeColor=none;fillColor=none;align=center;verticalAlign=middle;whiteSpace=wrap;rounded=0;" vertex="1" parent="1">
          <mxGeometry x="-105" y="752.75" width="60" height="30" as="geometry" />
        </mxCell>
        <mxCell id="_vD9ttKoIvzyoLe7udzj-155" value="PHONE 6&lt;br&gt;192.168.1..66" style="text;html=1;strokeColor=none;fillColor=none;align=center;verticalAlign=middle;whiteSpace=wrap;rounded=0;" vertex="1" parent="1">
          <mxGeometry x="-105" y="888.75" width="60" height="30" as="geometry" />
        </mxCell>
        <mxCell id="_vD9ttKoIvzyoLe7udzj-157" value="PHONE 7&lt;br&gt;192.168.1..67" style="text;html=1;strokeColor=none;fillColor=none;align=center;verticalAlign=middle;whiteSpace=wrap;rounded=0;" vertex="1" parent="1">
          <mxGeometry x="-105" y="1018.75" width="60" height="30" as="geometry" />
        </mxCell>
        <mxCell id="_vD9ttKoIvzyoLe7udzj-159" value="PHONE 8&lt;br&gt;192.168.1..68" style="text;html=1;strokeColor=none;fillColor=none;align=center;verticalAlign=middle;whiteSpace=wrap;rounded=0;" vertex="1" parent="1">
          <mxGeometry x="-105" y="1154.75" width="60" height="30" as="geometry" />
        </mxCell>
        <mxCell id="_vD9ttKoIvzyoLe7udzj-160" value="" style="endArrow=none;dashed=1;html=1;dashPattern=1 3;strokeWidth=2;rounded=0;exitX=0.5;exitY=1;exitDx=0;exitDy=0;entryX=0;entryY=0.6;entryDx=0;entryDy=0;entryPerimeter=0;" edge="1" parent="1" source="_vD9ttKoIvzyoLe7udzj-123" target="_vD9ttKoIvzyoLe7udzj-137">
          <mxGeometry width="50" height="50" relative="1" as="geometry">
            <mxPoint x="-420" y="700" as="sourcePoint" />
            <mxPoint x="-370" y="650" as="targetPoint" />
            <Array as="points">
              <mxPoint x="-530" y="720" />
            </Array>
          </mxGeometry>
        </mxCell>
        <mxCell id="_vD9ttKoIvzyoLe7udzj-161" value="" style="endArrow=none;dashed=1;html=1;dashPattern=1 3;strokeWidth=2;rounded=0;exitX=0.5;exitY=1;exitDx=0;exitDy=0;" edge="1" parent="1" source="_vD9ttKoIvzyoLe7udzj-123" target="_vD9ttKoIvzyoLe7udzj-139">
          <mxGeometry width="50" height="50" relative="1" as="geometry">
            <mxPoint x="-440" y="880" as="sourcePoint" />
            <mxPoint x="-390" y="830" as="targetPoint" />
            <Array as="points">
              <mxPoint x="-530" y="720" />
              <mxPoint x="-400" y="720" />
              <mxPoint x="-400" y="850" />
            </Array>
          </mxGeometry>
        </mxCell>
        <mxCell id="_vD9ttKoIvzyoLe7udzj-162" value="" style="endArrow=none;dashed=1;html=1;dashPattern=1 3;strokeWidth=2;rounded=0;exitX=0.5;exitY=1;exitDx=0;exitDy=0;" edge="1" parent="1" source="_vD9ttKoIvzyoLe7udzj-123" target="_vD9ttKoIvzyoLe7udzj-141">
          <mxGeometry width="50" height="50" relative="1" as="geometry">
            <mxPoint x="-430" y="1040" as="sourcePoint" />
            <mxPoint x="-380" y="990" as="targetPoint" />
            <Array as="points">
              <mxPoint x="-530" y="720" />
              <mxPoint x="-400" y="720" />
              <mxPoint x="-400" y="976" />
            </Array>
          </mxGeometry>
        </mxCell>
        <mxCell id="_vD9ttKoIvzyoLe7udzj-163" value="" style="endArrow=none;dashed=1;html=1;dashPattern=1 3;strokeWidth=2;rounded=0;exitX=0.5;exitY=1;exitDx=0;exitDy=0;" edge="1" parent="1" source="_vD9ttKoIvzyoLe7udzj-123" target="_vD9ttKoIvzyoLe7udzj-143">
          <mxGeometry width="50" height="50" relative="1" as="geometry">
            <mxPoint x="-450" y="1130" as="sourcePoint" />
            <mxPoint x="-400" y="1080" as="targetPoint" />
            <Array as="points">
              <mxPoint x="-530" y="720" />
              <mxPoint x="-400" y="720" />
              <mxPoint x="-400" y="1112" />
            </Array>
          </mxGeometry>
        </mxCell>
        <mxCell id="_vD9ttKoIvzyoLe7udzj-184" value="" style="verticalLabelPosition=bottom;sketch=0;aspect=fixed;html=1;verticalAlign=top;strokeColor=none;align=center;outlineConnect=0;shape=mxgraph.citrix.cell_phone;" vertex="1" parent="1">
          <mxGeometry x="-87.5" y="680" width="25" height="60" as="geometry" />
        </mxCell>
        <mxCell id="_vD9ttKoIvzyoLe7udzj-186" value="" style="verticalLabelPosition=bottom;sketch=0;aspect=fixed;html=1;verticalAlign=top;strokeColor=none;align=center;outlineConnect=0;shape=mxgraph.citrix.cell_phone;" vertex="1" parent="1">
          <mxGeometry x="-87.5" y="816" width="25" height="60" as="geometry" />
        </mxCell>
        <mxCell id="_vD9ttKoIvzyoLe7udzj-188" value="" style="verticalLabelPosition=bottom;sketch=0;aspect=fixed;html=1;verticalAlign=top;strokeColor=none;align=center;outlineConnect=0;shape=mxgraph.citrix.cell_phone;" vertex="1" parent="1">
          <mxGeometry x="-87.5" y="946" width="25" height="60" as="geometry" />
        </mxCell>
        <mxCell id="_vD9ttKoIvzyoLe7udzj-190" value="" style="verticalLabelPosition=bottom;sketch=0;aspect=fixed;html=1;verticalAlign=top;strokeColor=none;align=center;outlineConnect=0;shape=mxgraph.citrix.cell_phone;" vertex="1" parent="1">
          <mxGeometry x="-87.5" y="1082" width="25" height="60" as="geometry" />
        </mxCell>
        <mxCell id="_vD9ttKoIvzyoLe7udzj-192" value="" style="endArrow=none;dashed=1;html=1;dashPattern=1 3;strokeWidth=2;rounded=0;exitX=0.5;exitY=1;exitDx=0;exitDy=0;entryX=0;entryY=0.6;entryDx=0;entryDy=0;entryPerimeter=0;" edge="1" parent="1" target="_vD9ttKoIvzyoLe7udzj-184">
          <mxGeometry width="50" height="50" relative="1" as="geometry">
            <mxPoint x="-317.5" y="560" as="sourcePoint" />
            <mxPoint x="-157.5" y="650" as="targetPoint" />
            <Array as="points">
              <mxPoint x="-187.5" y="560" />
              <mxPoint x="-187.5" y="720" />
            </Array>
          </mxGeometry>
        </mxCell>
        <mxCell id="_vD9ttKoIvzyoLe7udzj-193" value="" style="endArrow=none;dashed=1;html=1;dashPattern=1 3;strokeWidth=2;rounded=0;exitX=0.5;exitY=1;exitDx=0;exitDy=0;" edge="1" parent="1" target="_vD9ttKoIvzyoLe7udzj-186">
          <mxGeometry width="50" height="50" relative="1" as="geometry">
            <mxPoint x="-317.5" y="560" as="sourcePoint" />
            <mxPoint x="-177.5" y="830" as="targetPoint" />
            <Array as="points">
              <mxPoint x="-187.5" y="560" />
              <mxPoint x="-187.5" y="720" />
              <mxPoint x="-187.5" y="850" />
            </Array>
          </mxGeometry>
        </mxCell>
        <mxCell id="_vD9ttKoIvzyoLe7udzj-194" value="" style="endArrow=none;dashed=1;html=1;dashPattern=1 3;strokeWidth=2;rounded=0;exitX=0.5;exitY=1;exitDx=0;exitDy=0;" edge="1" parent="1" target="_vD9ttKoIvzyoLe7udzj-188">
          <mxGeometry width="50" height="50" relative="1" as="geometry">
            <mxPoint x="-317.5" y="560" as="sourcePoint" />
            <mxPoint x="-167.5" y="990" as="targetPoint" />
            <Array as="points">
              <mxPoint x="-187.5" y="560" />
              <mxPoint x="-187.5" y="720" />
              <mxPoint x="-187.5" y="976" />
            </Array>
          </mxGeometry>
        </mxCell>
        <mxCell id="_vD9ttKoIvzyoLe7udzj-195" value="" style="endArrow=none;dashed=1;html=1;dashPattern=1 3;strokeWidth=2;rounded=0;" edge="1" parent="1">
          <mxGeometry width="50" height="50" relative="1" as="geometry">
            <mxPoint x="-400" y="720" as="sourcePoint" />
            <mxPoint x="-90" y="1120" as="targetPoint" />
            <Array as="points">
              <mxPoint x="-400" y="560" />
              <mxPoint x="-170" y="560" />
              <mxPoint x="-190" y="560" />
              <mxPoint x="-190" y="1120" />
            </Array>
          </mxGeometry>
        </mxCell>
        <mxCell id="_vD9ttKoIvzyoLe7udzj-201" value="&lt;font style=&quot;font-size: 24px;&quot;&gt;SALA RECEPCIÓN&lt;/font&gt;" style="text;html=1;strokeColor=#000000;fillColor=#FFD966;align=center;verticalAlign=middle;whiteSpace=wrap;rounded=0;" vertex="1" parent="1">
          <mxGeometry x="-377.5" y="460" width="227.5" height="30" as="geometry" />
        </mxCell>
      </root>
    </mxGraphModel>
  </diagram>
</mxfile>
